G04 PROTEUS GERBER X2 FILE*
%TF.GenerationSoftware,Labcenter,Proteus,8.17-SP2-Build37159*%
%TF.CreationDate,2025-08-15T22:28:22+00:00*%
%TF.FileFunction,Copper,L2,Bot*%
%TF.FilePolarity,Positive*%
%TF.Part,Single*%
%TF.SameCoordinates,{0e15ee55-a332-4318-b2cf-7b0c010742ed}*%
%FSLAX45Y45*%
%MOMM*%
G01*
%TA.AperFunction,Conductor*%
%ADD10C,0.762000*%
%TA.AperFunction,ComponentPad*%
%ADD11C,1.778000*%
%TA.AperFunction,ComponentPad*%
%ADD12C,1.524000*%
%TA.AperFunction,ComponentPad*%
%ADD13C,1.510000*%
%ADD14C,1.100000*%
%ADD15R,0.777810X0.777810*%
%ADD16C,1.220000*%
%TA.AperFunction,ComponentPad*%
%ADD17C,3.225800*%
%ADD18R,2.192030X2.192030*%
%ADD19C,3.100000*%
%TA.AperFunction,ComponentPad*%
%ADD70C,2.032000*%
%TA.AperFunction,ComponentPad*%
%ADD71C,2.540000*%
%TA.AperFunction,Profile*%
%ADD20C,0.101600*%
%TD.AperFunction*%
D10*
X+2600000Y+1500000D02*
X+2300000Y+1500000D01*
X+2300000Y+2516000D02*
X+2084000Y+2516000D01*
X+2000000Y+2600000D01*
X+1600000Y+2100000D02*
X+1673730Y+2173730D01*
X+1673730Y+2440114D01*
X+1800000Y+2566384D01*
X+1833616Y+2600000D01*
X+2000000Y+2600000D01*
X+2600000Y+1500000D02*
X+3546000Y+1500000D01*
X+3600000Y+1554000D01*
X+5125544Y+3478544D02*
X+5131000Y+3484000D01*
X+2300000Y+4500000D02*
X+2975978Y+3824022D01*
X+3408429Y+3824022D01*
X+3549540Y+3824022D01*
X+3578736Y+3824022D01*
X+3924214Y+3478544D01*
X+5125544Y+3478544D01*
X+3600000Y+1046000D02*
X+4000000Y+646000D01*
X+4000000Y+500000D01*
X+2400000Y+400000D02*
X+3300000Y+400000D01*
X+3400000Y+500000D01*
X+3700000Y+500000D02*
X+3700000Y+311712D01*
X+3840054Y+171658D01*
X+3849715Y+161997D01*
X+5270784Y+161997D01*
X+5370392Y+261605D01*
X+5370392Y+4235608D01*
X+5131000Y+4475000D01*
X+4500000Y+500000D02*
X+4500000Y+1000000D01*
X+4781193Y+1281193D01*
X+2600000Y+600000D02*
X+3281193Y+1281193D01*
X+3844954Y+1281193D01*
X+4781193Y+1281193D01*
X+5000000Y+1500000D01*
X+5122018Y+1622018D01*
X+5122018Y+3475018D01*
X+5125544Y+3478544D01*
X+5100000Y+500000D02*
X+4931715Y+331715D01*
X+4900000Y+938000D02*
X+5100000Y+738000D01*
X+5100000Y+500000D01*
X+4900000Y+1700000D02*
X+3746000Y+1700000D01*
X+3600000Y+1554000D01*
X+2600000Y+1703200D02*
X+2600000Y+2216000D01*
X+2300000Y+2516000D01*
X+1400000Y+2609000D02*
X+1400000Y+2700000D01*
X+1100000Y+3000000D01*
X+1400000Y+2100000D02*
X+1400000Y+2609000D01*
X+2300000Y+3509000D01*
X+1500000Y+1427000D02*
X+1843000Y+1427000D01*
X+2000000Y+1584000D01*
X+2600000Y+600000D02*
X+2600000Y+1296800D01*
X+1500000Y+1173000D02*
X+2476200Y+1173000D01*
X+2600000Y+1296800D01*
X+2343000Y+700000D02*
X+2209744Y+566744D01*
X+1727742Y+566744D01*
X+1557435Y+396437D01*
X+1330563Y+396437D01*
X+1327000Y+400000D01*
X+1500000Y+1427000D02*
X+1778000Y+1705000D01*
X+1778000Y+1714500D01*
X+762000Y+1714500D02*
X+762000Y+2002321D01*
X+567605Y+2196716D01*
X+403284Y+2196716D01*
X+400000Y+2200000D01*
X+1090500Y+484000D02*
X+1243000Y+484000D01*
X+1327000Y+400000D01*
X+1090500Y+1500000D02*
X+1399540Y+1809040D01*
X+1399540Y+2100000D01*
X+1400000Y+2100000D01*
X+400000Y+1400000D02*
X+563500Y+1400000D01*
X+1100000Y+1984000D02*
X+1100000Y+1892126D01*
X+1100000Y+1783132D01*
X+746558Y+1429690D01*
X+746558Y+1400000D01*
X+563500Y+1400000D01*
X+1263500Y+700000D01*
X+746558Y+1400000D02*
X+899522Y+1552964D01*
X+1100000Y+1753442D01*
X+1100000Y+1783132D01*
X+1100000Y+1892126D01*
X+1100000Y+1984000D01*
X+1263500Y+700000D02*
X+1327000Y+700000D01*
X+1327000Y+834226D01*
X+1501100Y+1008326D01*
X+1501100Y+1171900D01*
X+1500000Y+1173000D01*
X+2343000Y+400000D02*
X+2400000Y+400000D01*
X+2463500Y+400000D01*
X+2400000Y+400000D02*
X+2600000Y+600000D01*
D11*
X+1090500Y+1500000D03*
X+1090500Y+484000D03*
X+2000000Y+2600000D03*
X+2000000Y+1584000D03*
X+2300000Y+1500000D03*
X+2300000Y+2516000D03*
D12*
X+2600000Y+1703200D03*
X+2600000Y+1500000D03*
X+2600000Y+1296800D03*
D11*
X+2343000Y+400000D03*
X+1327000Y+400000D03*
X+2343000Y+700000D03*
X+1327000Y+700000D03*
D13*
X+1500000Y+1173000D03*
X+1500000Y+1427000D03*
D14*
X+1600000Y+2100000D03*
D15*
X+1400000Y+2100000D03*
D16*
X+3600000Y+1046000D03*
X+3600000Y+1554000D03*
D17*
X+3861000Y+4000000D03*
D18*
X+5131000Y+4475000D03*
D19*
X+5131000Y+3484000D03*
X+3353000Y+4475000D03*
X+3353000Y+3484000D03*
D17*
X+1792000Y+3984000D03*
D18*
X+522000Y+3509000D03*
D19*
X+522000Y+4500000D03*
X+2300000Y+3509000D03*
X+2300000Y+4500000D03*
D70*
X+3400000Y+500000D03*
X+3700000Y+500000D03*
X+4000000Y+500000D03*
X+4500000Y+500000D03*
X+4800000Y+500000D03*
X+5100000Y+500000D03*
X+4900000Y+938000D03*
X+4900000Y+1700000D03*
D11*
X+1100000Y+3000000D03*
X+1100000Y+1984000D03*
D70*
X+400000Y+1400000D03*
X+400000Y+1100000D03*
X+400000Y+2500000D03*
X+400000Y+2200000D03*
X+400000Y+1900000D03*
D71*
X+1778000Y+1714500D03*
X+762000Y+1714500D03*
D20*
X+0Y+0D02*
X+5500000Y+0D01*
X+5500000Y+5000000D01*
X+0Y+0D02*
X+0Y+5000000D01*
X+5500000Y+5000000D01*
M02*
