G04 PROTEUS GERBER X2 FILE*
%TF.GenerationSoftware,Labcenter,Proteus,8.17-SP2-Build37159*%
%TF.CreationDate,2025-08-15T22:28:22+00:00*%
%TF.FileFunction,Legend,Top*%
%TF.FilePolarity,Positive*%
%TF.Part,Single*%
%TF.SameCoordinates,{0e15ee55-a332-4318-b2cf-7b0c010742ed}*%
%FSLAX45Y45*%
%MOMM*%
G01*
%TA.AperFunction,Profile*%
%ADD20C,0.101600*%
%TA.AperFunction,Material*%
%ADD21C,0.101600*%
%ADD22C,0.200000*%
%ADD23C,0.127000*%
%ADD24C,0.400000*%
%TD.AperFunction*%
D20*
X+0Y+0D02*
X+5500000Y+0D01*
X+5500000Y+5000000D01*
X+0Y+0D02*
X+0Y+5000000D01*
X+5500000Y+5000000D01*
D21*
X+1090500Y+1373000D02*
X+1090500Y+1246000D01*
X+1027000Y+738000D02*
X+1154000Y+738000D01*
X+1154000Y+1246000D01*
X+1027000Y+1246000D01*
X+1027000Y+738000D01*
X+1090500Y+738000D02*
X+1090500Y+611000D01*
X+1260680Y+885320D02*
X+1184480Y+885320D01*
X+1184480Y+951995D01*
X+1197180Y+965330D01*
X+1209880Y+965330D01*
X+1222580Y+951995D01*
X+1222580Y+885320D01*
X+1222580Y+951995D02*
X+1235280Y+965330D01*
X+1260680Y+965330D01*
X+1197180Y+1005335D02*
X+1184480Y+1018670D01*
X+1184480Y+1058675D01*
X+1197180Y+1072010D01*
X+1209880Y+1072010D01*
X+1222580Y+1058675D01*
X+1235280Y+1072010D01*
X+1247980Y+1072010D01*
X+1260680Y+1058675D01*
X+1260680Y+1018670D01*
X+1247980Y+1005335D01*
X+1222580Y+1032005D02*
X+1222580Y+1058675D01*
X+2000000Y+2473000D02*
X+2000000Y+2346000D01*
X+1936500Y+1838000D02*
X+2063500Y+1838000D01*
X+2063500Y+2346000D01*
X+1936500Y+2346000D01*
X+1936500Y+1838000D01*
X+2000000Y+1838000D02*
X+2000000Y+1711000D01*
X+2170180Y+1985320D02*
X+2093980Y+1985320D01*
X+2093980Y+2051995D01*
X+2106680Y+2065330D01*
X+2119380Y+2065330D01*
X+2132080Y+2051995D01*
X+2132080Y+1985320D01*
X+2132080Y+2051995D02*
X+2144780Y+2065330D01*
X+2170180Y+2065330D01*
X+2106680Y+2105335D02*
X+2093980Y+2118670D01*
X+2093980Y+2158675D01*
X+2106680Y+2172010D01*
X+2119380Y+2172010D01*
X+2132080Y+2158675D01*
X+2132080Y+2118670D01*
X+2144780Y+2105335D01*
X+2170180Y+2105335D01*
X+2170180Y+2172010D01*
X+2300000Y+1627000D02*
X+2300000Y+1754000D01*
X+2236500Y+1754000D02*
X+2363500Y+1754000D01*
X+2363500Y+2262000D01*
X+2236500Y+2262000D01*
X+2236500Y+1754000D01*
X+2300000Y+2262000D02*
X+2300000Y+2389000D01*
X+2206020Y+1901320D02*
X+2129820Y+1901320D01*
X+2129820Y+1967995D01*
X+2142520Y+1981330D01*
X+2155220Y+1981330D01*
X+2167920Y+1967995D01*
X+2167920Y+1901320D01*
X+2167920Y+1967995D02*
X+2180620Y+1981330D01*
X+2206020Y+1981330D01*
X+2155220Y+2034670D02*
X+2129820Y+2061340D01*
X+2206020Y+2061340D01*
X+2434900Y+1754000D02*
X+2434900Y+1246000D01*
X+2600000Y+1830200D02*
X+2561702Y+1825438D01*
X+2522212Y+1811150D01*
X+2480342Y+1787338D01*
X+2434900Y+1754000D01*
X+2600000Y+1830200D02*
X+2664918Y+1827569D01*
X+2724953Y+1811088D01*
X+2778942Y+1782161D01*
X+2825722Y+1742193D01*
X+2864131Y+1692588D01*
X+2893005Y+1634751D01*
X+2911182Y+1570087D01*
X+2917500Y+1500000D01*
X+2600000Y+1169800D02*
X+2561702Y+1174562D01*
X+2522212Y+1188850D01*
X+2480342Y+1212662D01*
X+2434900Y+1246000D01*
X+2600000Y+1169800D02*
X+2664918Y+1172431D01*
X+2724953Y+1188912D01*
X+2778942Y+1217839D01*
X+2825722Y+1257807D01*
X+2864131Y+1307412D01*
X+2893005Y+1365249D01*
X+2911182Y+1429913D01*
X+2917500Y+1500000D01*
X+2973380Y+1393320D02*
X+2947980Y+1419990D01*
X+2947980Y+1446660D01*
X+2973380Y+1473330D01*
X+2998780Y+1473330D01*
X+3024180Y+1446660D01*
X+3024180Y+1419990D01*
X+2998780Y+1393320D01*
X+2973380Y+1393320D01*
X+2998780Y+1446660D02*
X+3024180Y+1473330D01*
X+2973380Y+1526670D02*
X+2947980Y+1553340D01*
X+3024180Y+1553340D01*
X+1644500Y+308560D02*
X+2025500Y+308560D01*
X+2025500Y+491440D01*
X+1644500Y+491440D01*
X+1644500Y+308560D01*
X+1708000Y+488900D02*
X+1708000Y+311100D01*
X+2025500Y+400000D02*
X+2190600Y+400000D01*
X+1644500Y+400000D02*
X+1479400Y+400000D01*
X+1728320Y+521920D02*
X+1728320Y+598120D01*
X+1781660Y+598120D01*
X+1808330Y+572720D01*
X+1808330Y+547320D01*
X+1781660Y+521920D01*
X+1728320Y+521920D01*
X+1848335Y+585420D02*
X+1861670Y+598120D01*
X+1901675Y+598120D01*
X+1915010Y+585420D01*
X+1915010Y+572720D01*
X+1901675Y+560020D01*
X+1915010Y+547320D01*
X+1915010Y+534620D01*
X+1901675Y+521920D01*
X+1861670Y+521920D01*
X+1848335Y+534620D01*
X+1875005Y+560020D02*
X+1901675Y+560020D01*
X+1644500Y+608560D02*
X+2025500Y+608560D01*
X+2025500Y+791440D01*
X+1644500Y+791440D01*
X+1644500Y+608560D01*
X+1708000Y+788900D02*
X+1708000Y+611100D01*
X+2025500Y+700000D02*
X+2190600Y+700000D01*
X+1644500Y+700000D02*
X+1479400Y+700000D01*
X+1728320Y+821920D02*
X+1728320Y+898120D01*
X+1781660Y+898120D01*
X+1808330Y+872720D01*
X+1808330Y+847320D01*
X+1781660Y+821920D01*
X+1728320Y+821920D01*
X+1848335Y+885420D02*
X+1861670Y+898120D01*
X+1901675Y+898120D01*
X+1915010Y+885420D01*
X+1915010Y+872720D01*
X+1901675Y+860020D01*
X+1861670Y+860020D01*
X+1848335Y+847320D01*
X+1848335Y+821920D01*
X+1915010Y+821920D01*
D22*
X+1638000Y+1040000D02*
X+1362000Y+1040000D01*
X+1635516Y+1038535D02*
X+1670508Y+1059721D01*
X+1702109Y+1085159D01*
X+1729926Y+1114445D01*
X+1753565Y+1147176D01*
X+1772635Y+1182950D01*
X+1786743Y+1221364D01*
X+1795495Y+1262015D01*
X+1798500Y+1304500D01*
X+1792435Y+1364651D01*
X+1775039Y+1420679D01*
X+1747514Y+1471383D01*
X+1711062Y+1515562D01*
X+1666883Y+1552014D01*
X+1616179Y+1579539D01*
X+1560151Y+1596934D01*
X+1500000Y+1603000D01*
X+1439849Y+1596934D01*
X+1383821Y+1579539D01*
X+1333117Y+1552014D01*
X+1288938Y+1515562D01*
X+1252486Y+1471383D01*
X+1224961Y+1420679D01*
X+1207565Y+1364651D01*
X+1201500Y+1304500D01*
X+1204319Y+1263337D01*
X+1212538Y+1223881D01*
X+1225801Y+1186497D01*
X+1243750Y+1151550D01*
X+1266030Y+1119404D01*
X+1292283Y+1090425D01*
X+1322154Y+1064977D01*
X+1355285Y+1043426D01*
X+1362000Y+1040000D01*
D21*
X+1910100Y+824940D02*
X+1833900Y+824940D01*
X+1833900Y+891615D01*
X+1846600Y+904950D01*
X+1859300Y+904950D01*
X+1872000Y+891615D01*
X+1872000Y+824940D01*
X+1859300Y+931620D02*
X+1833900Y+958290D01*
X+1833900Y+984960D01*
X+1859300Y+1011630D01*
X+1884700Y+1011630D01*
X+1910100Y+984960D01*
X+1910100Y+958290D01*
X+1884700Y+931620D01*
X+1859300Y+931620D01*
X+1833900Y+1038300D02*
X+1910100Y+1038300D01*
X+1872000Y+1078305D01*
X+1910100Y+1118310D01*
X+1833900Y+1118310D01*
X+1910100Y+1224990D02*
X+1910100Y+1144980D01*
X+1833900Y+1144980D01*
X+1833900Y+1224990D01*
X+1872000Y+1144980D02*
X+1872000Y+1198320D01*
X+1910100Y+1251660D02*
X+1833900Y+1251660D01*
X+1833900Y+1318335D01*
X+1846600Y+1331670D01*
X+1859300Y+1331670D01*
X+1872000Y+1318335D01*
X+1872000Y+1251660D01*
X+1872000Y+1318335D02*
X+1884700Y+1331670D01*
X+1910100Y+1331670D01*
X+1833900Y+1465020D02*
X+1910100Y+1465020D01*
X+1910100Y+1545030D01*
X+1910100Y+1651710D02*
X+1910100Y+1571700D01*
X+1833900Y+1571700D01*
X+1833900Y+1651710D01*
X+1872000Y+1571700D02*
X+1872000Y+1625040D01*
X+1910100Y+1678380D02*
X+1833900Y+1678380D01*
X+1833900Y+1731720D01*
X+1859300Y+1758390D01*
X+1884700Y+1758390D01*
X+1910100Y+1731720D01*
X+1910100Y+1678380D01*
D23*
X+1750000Y+2100000D02*
X+1749185Y+2120171D01*
X+1742566Y+2160514D01*
X+1728753Y+2200857D01*
X+1706307Y+2241200D01*
X+1672010Y+2281418D01*
X+1631667Y+2312518D01*
X+1591324Y+2332723D01*
X+1550981Y+2344747D01*
X+1510638Y+2349774D01*
X+1500000Y+2350000D01*
X+1250000Y+2100000D02*
X+1250815Y+2120171D01*
X+1257434Y+2160514D01*
X+1271247Y+2200857D01*
X+1293693Y+2241200D01*
X+1327990Y+2281418D01*
X+1368333Y+2312518D01*
X+1408676Y+2332723D01*
X+1449019Y+2344747D01*
X+1489362Y+2349774D01*
X+1500000Y+2350000D01*
X+1250000Y+2100000D02*
X+1250815Y+2079829D01*
X+1257434Y+2039486D01*
X+1271247Y+1999143D01*
X+1293693Y+1958800D01*
X+1327990Y+1918582D01*
X+1368333Y+1887482D01*
X+1408676Y+1867277D01*
X+1449019Y+1855253D01*
X+1489362Y+1850226D01*
X+1500000Y+1850000D01*
X+1750000Y+2100000D02*
X+1749185Y+2079829D01*
X+1742566Y+2039486D01*
X+1728753Y+1999143D01*
X+1706307Y+1958800D01*
X+1672010Y+1918582D01*
X+1631667Y+1887482D01*
X+1591324Y+1867277D01*
X+1550981Y+1855253D01*
X+1510638Y+1850226D01*
X+1500000Y+1850000D01*
D22*
X+1185000Y+2100000D02*
X+1184965Y+2100831D01*
X+1184684Y+2102495D01*
X+1184094Y+2104159D01*
X+1183130Y+2105823D01*
X+1181655Y+2107464D01*
X+1179991Y+2108665D01*
X+1178327Y+2109430D01*
X+1176663Y+2109861D01*
X+1175000Y+2110000D01*
X+1165000Y+2100000D02*
X+1165035Y+2100831D01*
X+1165316Y+2102495D01*
X+1165906Y+2104159D01*
X+1166870Y+2105823D01*
X+1168345Y+2107464D01*
X+1170009Y+2108665D01*
X+1171673Y+2109430D01*
X+1173337Y+2109861D01*
X+1175000Y+2110000D01*
X+1165000Y+2100000D02*
X+1165035Y+2099169D01*
X+1165316Y+2097505D01*
X+1165906Y+2095841D01*
X+1166870Y+2094177D01*
X+1168345Y+2092536D01*
X+1170009Y+2091335D01*
X+1171673Y+2090570D01*
X+1173337Y+2090139D01*
X+1175000Y+2090000D01*
X+1185000Y+2100000D02*
X+1184965Y+2099169D01*
X+1184684Y+2097505D01*
X+1184094Y+2095841D01*
X+1183130Y+2094177D01*
X+1181655Y+2092536D01*
X+1179991Y+2091335D01*
X+1178327Y+2090570D01*
X+1176663Y+2090139D01*
X+1175000Y+2090000D01*
D21*
X+1439580Y+2394450D02*
X+1426245Y+2381750D01*
X+1386240Y+2381750D01*
X+1359570Y+2407150D01*
X+1359570Y+2432550D01*
X+1386240Y+2457950D01*
X+1426245Y+2457950D01*
X+1439580Y+2445250D01*
X+1479585Y+2445250D02*
X+1492920Y+2457950D01*
X+1532925Y+2457950D01*
X+1546260Y+2445250D01*
X+1546260Y+2432550D01*
X+1532925Y+2419850D01*
X+1492920Y+2419850D01*
X+1479585Y+2407150D01*
X+1479585Y+2381750D01*
X+1546260Y+2381750D01*
D23*
X+3441250Y+1046000D02*
X+3507000Y+1046000D01*
X+3758750Y+1046000D02*
X+3693000Y+1046000D01*
X+3507000Y+1554000D02*
X+3441250Y+1554000D01*
X+3758750Y+1554000D02*
X+3693000Y+1554000D01*
X+3758750Y+1046000D02*
X+3758750Y+1554000D01*
X+3441250Y+1554000D02*
X+3441250Y+1046000D01*
D21*
X+3396800Y+953290D02*
X+3409500Y+939955D01*
X+3409500Y+899950D01*
X+3384100Y+873280D01*
X+3358700Y+873280D01*
X+3333300Y+899950D01*
X+3333300Y+939955D01*
X+3346000Y+953290D01*
X+3358700Y+1006630D02*
X+3333300Y+1033300D01*
X+3409500Y+1033300D01*
X+3358700Y+1219990D02*
X+3333300Y+1246660D01*
X+3409500Y+1246660D01*
X+3396800Y+1300000D02*
X+3346000Y+1300000D01*
X+3333300Y+1313335D01*
X+3333300Y+1366675D01*
X+3346000Y+1380010D01*
X+3396800Y+1380010D01*
X+3409500Y+1366675D01*
X+3409500Y+1313335D01*
X+3396800Y+1300000D01*
X+3409500Y+1300000D02*
X+3333300Y+1380010D01*
X+3396800Y+1406680D02*
X+3346000Y+1406680D01*
X+3333300Y+1420015D01*
X+3333300Y+1473355D01*
X+3346000Y+1486690D01*
X+3396800Y+1486690D01*
X+3409500Y+1473355D01*
X+3409500Y+1420015D01*
X+3396800Y+1406680D01*
X+3409500Y+1406680D02*
X+3333300Y+1486690D01*
X+3409500Y+1513360D02*
X+3333300Y+1513360D01*
X+3409500Y+1593370D01*
X+3333300Y+1593370D01*
X+3409500Y+1620040D02*
X+3333300Y+1620040D01*
X+3333300Y+1700050D01*
X+3371400Y+1620040D02*
X+3371400Y+1673380D01*
D23*
X+2895000Y+4781000D02*
X+2895000Y+3219000D01*
X+5659000Y+3219000D01*
X+5659000Y+4781000D01*
X+2895000Y+4781000D01*
D24*
X+5128000Y+4889000D02*
X+5127931Y+4890661D01*
X+5127369Y+4893985D01*
X+5126192Y+4897309D01*
X+5124269Y+4900633D01*
X+5121327Y+4903913D01*
X+5118003Y+4906319D01*
X+5114679Y+4907852D01*
X+5111355Y+4908717D01*
X+5108031Y+4909000D01*
X+5108000Y+4909000D01*
X+5088000Y+4889000D02*
X+5088069Y+4890661D01*
X+5088631Y+4893985D01*
X+5089808Y+4897309D01*
X+5091731Y+4900633D01*
X+5094673Y+4903913D01*
X+5097997Y+4906319D01*
X+5101321Y+4907852D01*
X+5104645Y+4908717D01*
X+5107969Y+4909000D01*
X+5108000Y+4909000D01*
X+5088000Y+4889000D02*
X+5088069Y+4887339D01*
X+5088631Y+4884015D01*
X+5089808Y+4880691D01*
X+5091731Y+4877367D01*
X+5094673Y+4874087D01*
X+5097997Y+4871681D01*
X+5101321Y+4870148D01*
X+5104645Y+4869283D01*
X+5107969Y+4869000D01*
X+5108000Y+4869000D01*
X+5128000Y+4889000D02*
X+5127931Y+4887339D01*
X+5127369Y+4884015D01*
X+5126192Y+4880691D01*
X+5124269Y+4877367D01*
X+5121327Y+4874087D01*
X+5118003Y+4871681D01*
X+5114679Y+4870148D01*
X+5111355Y+4869283D01*
X+5108031Y+4869000D01*
X+5108000Y+4869000D01*
D21*
X+4346138Y+5030600D02*
X+4399478Y+5030600D01*
X+4372808Y+5030600D02*
X+4372808Y+4954400D01*
X+4346138Y+4954400D02*
X+4399478Y+4954400D01*
X+4439483Y+4954400D02*
X+4439483Y+5030600D01*
X+4519493Y+4954400D01*
X+4519493Y+5030600D01*
X+4546163Y+4954400D02*
X+4546163Y+5030600D01*
X+4612838Y+5030600D01*
X+4626173Y+5017900D01*
X+4626173Y+5005200D01*
X+4612838Y+4992500D01*
X+4546163Y+4992500D01*
X+4652843Y+5030600D02*
X+4652843Y+4967100D01*
X+4666178Y+4954400D01*
X+4719518Y+4954400D01*
X+4732853Y+4967100D01*
X+4732853Y+5030600D01*
X+4759523Y+5030600D02*
X+4839533Y+5030600D01*
X+4799528Y+5030600D02*
X+4799528Y+4954400D01*
D23*
X+2758000Y+3203000D02*
X+2758000Y+4765000D01*
X-6000Y+4765000D01*
X-6000Y+3203000D01*
X+2758000Y+3203000D01*
D24*
X+565000Y+3095000D02*
X+564931Y+3096661D01*
X+564369Y+3099985D01*
X+563192Y+3103309D01*
X+561269Y+3106633D01*
X+558327Y+3109913D01*
X+555003Y+3112319D01*
X+551679Y+3113852D01*
X+548355Y+3114717D01*
X+545031Y+3115000D01*
X+545000Y+3115000D01*
X+525000Y+3095000D02*
X+525069Y+3096661D01*
X+525631Y+3099985D01*
X+526808Y+3103309D01*
X+528731Y+3106633D01*
X+531673Y+3109913D01*
X+534997Y+3112319D01*
X+538321Y+3113852D01*
X+541645Y+3114717D01*
X+544969Y+3115000D01*
X+545000Y+3115000D01*
X+525000Y+3095000D02*
X+525069Y+3093339D01*
X+525631Y+3090015D01*
X+526808Y+3086691D01*
X+528731Y+3083367D01*
X+531673Y+3080087D01*
X+534997Y+3077681D01*
X+538321Y+3076148D01*
X+541645Y+3075283D01*
X+544969Y+3075000D01*
X+545000Y+3075000D01*
X+565000Y+3095000D02*
X+564931Y+3093339D01*
X+564369Y+3090015D01*
X+563192Y+3086691D01*
X+561269Y+3083367D01*
X+558327Y+3080087D01*
X+555003Y+3077681D01*
X+551679Y+3076148D01*
X+548355Y+3075283D01*
X+545031Y+3075000D01*
X+545000Y+3075000D01*
D21*
X+733457Y+3004200D02*
X+760127Y+3029600D01*
X+786797Y+3029600D01*
X+813467Y+3004200D01*
X+813467Y+2978800D01*
X+786797Y+2953400D01*
X+760127Y+2953400D01*
X+733457Y+2978800D01*
X+733457Y+3004200D01*
X+840137Y+3029600D02*
X+840137Y+2966100D01*
X+853472Y+2953400D01*
X+906812Y+2953400D01*
X+920147Y+2966100D01*
X+920147Y+3029600D01*
X+946817Y+3029600D02*
X+1026827Y+3029600D01*
X+986822Y+3029600D02*
X+986822Y+2953400D01*
X+1053497Y+2953400D02*
X+1053497Y+3029600D01*
X+1120172Y+3029600D01*
X+1133507Y+3016900D01*
X+1133507Y+3004200D01*
X+1120172Y+2991500D01*
X+1053497Y+2991500D01*
X+1160177Y+3029600D02*
X+1160177Y+2966100D01*
X+1173512Y+2953400D01*
X+1226852Y+2953400D01*
X+1240187Y+2966100D01*
X+1240187Y+3029600D01*
X+1266857Y+3029600D02*
X+1346867Y+3029600D01*
X+1306862Y+3029600D02*
X+1306862Y+2953400D01*
X+3200000Y+700000D02*
X+3200000Y+300000D01*
X+4200000Y+300000D02*
X+4200000Y+700000D01*
X+3200000Y+700000D01*
X+3200000Y+300000D02*
X+4200000Y+300000D01*
X+3166600Y+806680D02*
X+3166600Y+768580D01*
X+3206605Y+730480D01*
X+3246610Y+768580D01*
X+3246610Y+806680D01*
X+3273280Y+781280D02*
X+3299950Y+806680D01*
X+3326620Y+806680D01*
X+3353290Y+781280D01*
X+3353290Y+755880D01*
X+3326620Y+730480D01*
X+3299950Y+730480D01*
X+3273280Y+755880D01*
X+3273280Y+781280D01*
X+3379960Y+806680D02*
X+3379960Y+730480D01*
X+3459970Y+730480D01*
X+3486640Y+806680D02*
X+3486640Y+743180D01*
X+3499975Y+730480D01*
X+3553315Y+730480D01*
X+3566650Y+743180D01*
X+3566650Y+806680D01*
X+3593320Y+730480D02*
X+3593320Y+806680D01*
X+3633325Y+768580D01*
X+3673330Y+806680D01*
X+3673330Y+730480D01*
X+3780010Y+730480D02*
X+3700000Y+730480D01*
X+3700000Y+806680D01*
X+3780010Y+806680D01*
X+3700000Y+768580D02*
X+3753340Y+768580D01*
X+3913360Y+730480D02*
X+3913360Y+806680D01*
X+3980035Y+806680D01*
X+3993370Y+793980D01*
X+3993370Y+781280D01*
X+3980035Y+768580D01*
X+3913360Y+768580D01*
X+4020040Y+781280D02*
X+4046710Y+806680D01*
X+4073380Y+806680D01*
X+4100050Y+781280D01*
X+4100050Y+755880D01*
X+4073380Y+730480D01*
X+4046710Y+730480D01*
X+4020040Y+755880D01*
X+4020040Y+781280D01*
X+4126720Y+806680D02*
X+4206730Y+806680D01*
X+4166725Y+806680D02*
X+4166725Y+730480D01*
X+4300000Y+700000D02*
X+4300000Y+300000D01*
X+5300000Y+300000D02*
X+5300000Y+700000D01*
X+4300000Y+700000D01*
X+4300000Y+300000D02*
X+5300000Y+300000D01*
X+4426620Y+755880D02*
X+4453290Y+755880D01*
X+4453290Y+730480D01*
X+4399950Y+730480D01*
X+4373280Y+755880D01*
X+4373280Y+781280D01*
X+4399950Y+806680D01*
X+4439955Y+806680D01*
X+4453290Y+793980D01*
X+4479960Y+730480D02*
X+4479960Y+781280D01*
X+4506630Y+806680D01*
X+4533300Y+806680D01*
X+4559970Y+781280D01*
X+4559970Y+730480D01*
X+4479960Y+755880D02*
X+4559970Y+755880D01*
X+4599975Y+806680D02*
X+4653315Y+806680D01*
X+4626645Y+806680D02*
X+4626645Y+730480D01*
X+4599975Y+730480D02*
X+4653315Y+730480D01*
X+4693320Y+730480D02*
X+4693320Y+806680D01*
X+4773330Y+730480D01*
X+4773330Y+806680D01*
X+4906680Y+730480D02*
X+4906680Y+806680D01*
X+4973355Y+806680D01*
X+4986690Y+793980D01*
X+4986690Y+781280D01*
X+4973355Y+768580D01*
X+4906680Y+768580D01*
X+5013360Y+781280D02*
X+5040030Y+806680D01*
X+5066700Y+806680D01*
X+5093370Y+781280D01*
X+5093370Y+755880D01*
X+5066700Y+730480D01*
X+5040030Y+730480D01*
X+5013360Y+755880D01*
X+5013360Y+781280D01*
X+5120040Y+806680D02*
X+5200050Y+806680D01*
X+5160045Y+806680D02*
X+5160045Y+730480D01*
X+4874600Y+1065000D02*
X+4925400Y+1065000D01*
X+4925400Y+1573000D01*
X+4874600Y+1573000D01*
X+4874600Y+1065000D01*
X+1100000Y+2873000D02*
X+1100000Y+2746000D01*
X+1036500Y+2238000D02*
X+1163500Y+2238000D01*
X+1163500Y+2746000D01*
X+1036500Y+2746000D01*
X+1036500Y+2238000D01*
X+1100000Y+2238000D02*
X+1100000Y+2111000D01*
X+1270180Y+2385320D02*
X+1193980Y+2385320D01*
X+1193980Y+2451995D01*
X+1206680Y+2465330D01*
X+1219380Y+2465330D01*
X+1232080Y+2451995D01*
X+1232080Y+2385320D01*
X+1232080Y+2451995D02*
X+1244780Y+2465330D01*
X+1270180Y+2465330D01*
X+1244780Y+2572010D02*
X+1244780Y+2492000D01*
X+1193980Y+2545340D01*
X+1270180Y+2545340D01*
X+200000Y+1500000D02*
X+200000Y+900000D01*
X+600000Y+900000D01*
X+600000Y+1600000D01*
X+200000Y+1600000D01*
X+200000Y+1500000D02*
X+200000Y+1600000D01*
X+655880Y+796610D02*
X+668580Y+783275D01*
X+668580Y+743270D01*
X+655880Y+729935D01*
X+643180Y+729935D01*
X+630480Y+743270D01*
X+630480Y+783275D01*
X+643180Y+796610D01*
X+693980Y+796610D01*
X+706680Y+783275D01*
X+706680Y+743270D01*
X+630480Y+823280D02*
X+668580Y+823280D01*
X+706680Y+863285D01*
X+668580Y+903290D01*
X+630480Y+903290D01*
X+706680Y+1036640D02*
X+630480Y+1036640D01*
X+630480Y+1103315D01*
X+643180Y+1116650D01*
X+655880Y+1116650D01*
X+668580Y+1103315D01*
X+681280Y+1116650D01*
X+693980Y+1116650D01*
X+706680Y+1103315D01*
X+706680Y+1036640D01*
X+668580Y+1036640D02*
X+668580Y+1103315D01*
X+706680Y+1143320D02*
X+655880Y+1143320D01*
X+630480Y+1169990D01*
X+630480Y+1196660D01*
X+655880Y+1223330D01*
X+706680Y+1223330D01*
X+681280Y+1143320D02*
X+681280Y+1223330D01*
X+630480Y+1250000D02*
X+630480Y+1330010D01*
X+630480Y+1290005D02*
X+706680Y+1290005D01*
X+630480Y+1356680D02*
X+630480Y+1436690D01*
X+630480Y+1396685D02*
X+706680Y+1396685D01*
X+706680Y+1543370D02*
X+706680Y+1463360D01*
X+630480Y+1463360D01*
X+630480Y+1543370D01*
X+668580Y+1463360D02*
X+668580Y+1516700D01*
X+706680Y+1570040D02*
X+630480Y+1570040D01*
X+630480Y+1636715D01*
X+643180Y+1650050D01*
X+655880Y+1650050D01*
X+668580Y+1636715D01*
X+668580Y+1570040D01*
X+668580Y+1636715D02*
X+681280Y+1650050D01*
X+706680Y+1650050D01*
X+630480Y+1756730D02*
X+706680Y+1676720D01*
X+630480Y+1676720D02*
X+668580Y+1716725D01*
X+600000Y+2700000D02*
X+200000Y+2700000D01*
X+200000Y+1700000D02*
X+600000Y+1700000D01*
X+600000Y+2700000D01*
X+200000Y+2700000D02*
X+200000Y+1700000D01*
X+655880Y+1879960D02*
X+630480Y+1906630D01*
X+630480Y+1933300D01*
X+655880Y+1959970D01*
X+681280Y+1959970D01*
X+706680Y+1933300D01*
X+706680Y+1906630D01*
X+681280Y+1879960D01*
X+655880Y+1879960D01*
X+706680Y+1986640D02*
X+630480Y+1986640D01*
X+706680Y+2066650D01*
X+630480Y+2066650D01*
X+655880Y+2200000D02*
X+630480Y+2226670D01*
X+630480Y+2253340D01*
X+655880Y+2280010D01*
X+681280Y+2280010D01*
X+706680Y+2253340D01*
X+706680Y+2226670D01*
X+681280Y+2200000D01*
X+655880Y+2200000D01*
X+706680Y+2306680D02*
X+630480Y+2306680D01*
X+630480Y+2386690D01*
X+668580Y+2306680D02*
X+668580Y+2360020D01*
X+706680Y+2413360D02*
X+630480Y+2413360D01*
X+630480Y+2493370D01*
X+668580Y+2413360D02*
X+668580Y+2466700D01*
X+927100Y+1701800D02*
X+1625600Y+1701800D01*
X+1625600Y+1752600D01*
X+927100Y+1752600D01*
X+927100Y+1701800D01*
M02*
