G04 PROTEUS GERBER X2 FILE*
%TF.GenerationSoftware,Labcenter,Proteus,8.17-SP2-Build37159*%
%TF.CreationDate,2025-08-15T22:28:22+00:00*%
%TF.FileFunction,Soldermask,Top*%
%TF.FilePolarity,Negative*%
%TF.Part,Single*%
%TF.SameCoordinates,{0e15ee55-a332-4318-b2cf-7b0c010742ed}*%
%FSLAX45Y45*%
%MOMM*%
G01*
%TA.AperFunction,Material*%
%ADD25C,2.032000*%
%TA.AperFunction,Material*%
%ADD26C,1.778000*%
%TA.AperFunction,Material*%
%ADD27C,1.610000*%
%ADD28C,1.200000*%
%AMPPAD021*
4,1,36,
-0.388900,0.438900,
0.388900,0.438900,
0.398980,0.437880,
0.408360,0.434970,
0.416850,0.430360,
0.424250,0.424250,
0.430360,0.416850,
0.434970,0.408360,
0.437880,0.398980,
0.438900,0.388900,
0.438900,-0.388900,
0.437880,-0.398980,
0.434970,-0.408360,
0.430360,-0.416850,
0.424250,-0.424250,
0.416850,-0.430360,
0.408360,-0.434970,
0.398980,-0.437880,
0.388900,-0.438900,
-0.388900,-0.438900,
-0.398980,-0.437880,
-0.408360,-0.434970,
-0.416850,-0.430360,
-0.424250,-0.424250,
-0.430360,-0.416850,
-0.434970,-0.408360,
-0.437880,-0.398980,
-0.438900,-0.388900,
-0.438900,0.388900,
-0.437880,0.398980,
-0.434970,0.408360,
-0.430360,0.416850,
-0.424250,0.424250,
-0.416850,0.430360,
-0.408360,0.434970,
-0.398980,0.437880,
-0.388900,0.438900,
0*%
%ADD29PPAD021*%
%ADD72C,1.320000*%
%TA.AperFunction,Material*%
%ADD73C,3.225800*%
%AMPPAD024*
4,1,36,
-1.096010,1.146010,
1.096010,1.146010,
1.106090,1.144990,
1.115470,1.142080,
1.123960,1.137470,
1.131360,1.131360,
1.137470,1.123960,
1.142080,1.115470,
1.144990,1.106090,
1.146010,1.096010,
1.146010,-1.096010,
1.144990,-1.106090,
1.142080,-1.115470,
1.137470,-1.123960,
1.131360,-1.131360,
1.123960,-1.137470,
1.115470,-1.142080,
1.106090,-1.144990,
1.096010,-1.146010,
-1.096010,-1.146010,
-1.106090,-1.144990,
-1.115470,-1.142080,
-1.123960,-1.137470,
-1.131360,-1.131360,
-1.137470,-1.123960,
-1.142080,-1.115470,
-1.144990,-1.106090,
-1.146010,-1.096010,
-1.146010,1.096010,
-1.144990,1.106090,
-1.142080,1.115470,
-1.137470,1.123960,
-1.131360,1.131360,
-1.123960,1.137470,
-1.115470,1.142080,
-1.106090,1.144990,
-1.096010,1.146010,
0*%
%ADD30PPAD024*%
%ADD31C,3.200000*%
%TA.AperFunction,Material*%
%ADD32C,2.286000*%
%TA.AperFunction,Material*%
%ADD33C,2.794000*%
%TA.AperFunction,Profile*%
%ADD20C,0.101600*%
%TD.AperFunction*%
D25*
X+1090500Y+1500000D03*
X+1090500Y+484000D03*
X+2000000Y+2600000D03*
X+2000000Y+1584000D03*
X+2300000Y+1500000D03*
X+2300000Y+2516000D03*
D26*
X+2600000Y+1703200D03*
X+2600000Y+1500000D03*
X+2600000Y+1296800D03*
D25*
X+2343000Y+400000D03*
X+1327000Y+400000D03*
X+2343000Y+700000D03*
X+1327000Y+700000D03*
D27*
X+1500000Y+1173000D03*
X+1500000Y+1427000D03*
D28*
X+1600000Y+2100000D03*
D29*
X+1400000Y+2100000D03*
D72*
X+3600000Y+1046000D03*
X+3600000Y+1554000D03*
D73*
X+3861000Y+4000000D03*
D30*
X+5131000Y+4475000D03*
D31*
X+5131000Y+3484000D03*
X+3353000Y+4475000D03*
X+3353000Y+3484000D03*
D73*
X+1792000Y+3984000D03*
D30*
X+522000Y+3509000D03*
D31*
X+522000Y+4500000D03*
X+2300000Y+3509000D03*
X+2300000Y+4500000D03*
D32*
X+3400000Y+500000D03*
X+3700000Y+500000D03*
X+4000000Y+500000D03*
X+4500000Y+500000D03*
X+4800000Y+500000D03*
X+5100000Y+500000D03*
X+4900000Y+938000D03*
X+4900000Y+1700000D03*
D25*
X+1100000Y+3000000D03*
X+1100000Y+1984000D03*
D32*
X+400000Y+1400000D03*
X+400000Y+1100000D03*
X+400000Y+2500000D03*
X+400000Y+2200000D03*
X+400000Y+1900000D03*
D33*
X+1778000Y+1714500D03*
X+762000Y+1714500D03*
D20*
X+0Y+0D02*
X+5500000Y+0D01*
X+5500000Y+5000000D01*
X+0Y+0D02*
X+0Y+5000000D01*
X+5500000Y+5000000D01*
M02*
